HIERARCHY
ROOT Hips
{
	OFFSET 0.00000 0.00000 0.00000
	CHANNELS 6 Xposition Yposition Zposition Yrotation Zrotation Xrotation 
	JOINT Lumbar
	{
		OFFSET 0 0 0
		CHANNELS 3 Zrotation Xrotation Yrotation
		JOINT Neck
		{
			OFFSET 0.00 0.2701 0.00
			CHANNELS 3 Zrotation Xrotation Yrotation
			End Site
			{
				OFFSET 0.00 0.1379 0.00
			}
		}
		JOINT RightShoulder
		{
			OFFSET 0.0119 0.2289 0.1181
			CHANNELS 3 Zrotation Xrotation Yrotation
			JOINT RightElbow
			{
				OFFSET 0.00 -0.1475 0.00
				CHANNELS 2 Zrotation Yrotation
				JOINT RightWrist
				{
					OFFSET 0.00 -0.1605 0.00
					CHANNELS 2 Zrotation Xrotation
					End Site
					{
						OFFSET 0.0040 -0.1068 0.0006
					}
				}
			}
		}
		JOINT LeftShoulder
		{
			OFFSET 0.0119 0.2289 -0.1181
			CHANNELS 3 Zrotation Xrotation Yrotation
			JOINT LeftElbow
			{
				OFFSET 0.00 -0.1475 0.00
				CHANNELS 2 Zrotation Yrotation
				JOINT LeftWrist
				{
					OFFSET 0.00 -0.1605 0.00
					CHANNELS 2 Zrotation Xrotation
					End Site
					{
						OFFSET 0.0040 -0.1068 -0.0006
					}
				}
			}
		}
	}
	JOINT RightHip
	{
		OFFSET 0.0316 -0.0424 0.0458
		CHANNELS 3 Zrotation Xrotation Yrotation
		JOINT RightKnee
		{
			OFFSET 0.00 -0.2438 0.00
			CHANNELS 1 Zrotation
			JOINT RightAnkle
			{
				OFFSET 0.00 -0.2449 0.00
				CHANNELS 3 Zrotation Xrotation Yrotation
				End Site
				{
					OFFSET 0.1237 -0.0542 0.0051
				}
			}
		}
	}
	JOINT LeftHip
	{
		OFFSET 0.0316 -0.0424 -0.0458
		CHANNELS 3 Zrotation Xrotation Yrotation
		JOINT LeftKnee
		{
			OFFSET 0.00 -0.2438 0.00
			CHANNELS 1 Zrotation
			JOINT LeftAnkle
			{
				OFFSET 0.00 -0.2449 0.00
				CHANNELS 3 Zrotation Xrotation Yrotation
				End Site
				{
					OFFSET 0.1237 -0.0542 -0.0051
				}
			}
		}
	}
}
MOTION
Frames: 20
Frame Time: 0.02
-0 0.57926 -0 178.5946 0 -3.38295 3.66937 3.58731 -1.04006 -21.7231 2.04832 2.1246 -12.57674 -69.91873 -90.01095 18.14961 46.25654 -27.7996 1.76172 21.36327 71.9496 65.91723 18.46696 -89.17702 -23.75723 4.75268 -4.87323 7.42631 -8.283 -7.02593 1.25406 -5.10843 -10.00483 -2.95467 2.52394 4.73957 -5.07913 5.41896 6.09814 9.66665
9e-05 0.57926 9e-05 178.60835 0 -3.39044 3.66681 3.58018 -0.98673 -22.01944 2.08586 2.08026 -12.80444 -70.00001 -90.01124 18.01835 46.03747 -27.84635 1.7133 21.3154 71.85998 66.27131 18.45999 -89.11826 -23.6957 4.74473 -4.87156 7.43017 -8.25591 -7.0107 1.2479 -5.08861 -10.04418 -2.94684 2.52434 4.74751 -5.07369 5.42379 6.1045 9.64149
0.00018 0.57927 0.00018 178.62198 0 -3.3979 3.66441 3.57299 -0.93361 -22.31641 2.12326 2.03617 -13.0314 -70.08109 -90.01107 17.8876 45.81774 -27.89316 1.66573 21.26868 71.77078 66.62481 18.45307 -89.05952 -23.63474 4.73686 -4.86982 7.43398 -8.22903 -6.99566 1.24179 -5.06897 -10.08323 -2.93901 2.52473 4.75545 -5.06832 5.42858 6.11078 9.61648
0.00028 0.57927 0.00028 178.63525 0 -3.40529 3.66248 3.56564 -0.88074 -22.61641 2.16044 1.99242 -13.25675 -70.16252 -90.01125 17.75709 45.5953 -27.94007 1.62098 21.22438 71.68268 66.97961 18.44587 -88.99999 -23.57551 4.72938 -4.8679 7.43765 -8.20288 -6.98107 1.23586 -5.04983 -10.12132 -2.93114 2.5251 4.7636 -5.06319 5.43332 6.11675 9.59165
0.00037 0.57927 0.00037 178.65045 0 -3.41305 3.65785 3.55929 -0.82645 -22.89751 2.19876 1.94659 -13.48965 -70.24252 -90.01216 17.62471 45.38967 -27.9857 1.56114 21.16518 71.5891 67.32771 18.4397 -88.94428 -23.50718 4.72001 -4.86707 7.44208 -8.17305 -6.96393 1.22899 -5.02801 -10.16429 -2.92352 2.52563 4.7708 -5.05681 5.43839 6.1243 9.56568
0.00046 0.57927 0.00046 178.66152 0 -3.42002 3.65911 3.55075 -0.77527 -23.22022 2.23464 1.9054 -13.70701 -70.32518 -90.0098 17.49684 45.14702 -28.0345 1.5334 21.13896 71.50696 67.68953 18.43166 -88.88081 -23.45814 4.7145 -4.86387 7.44489 -8.1509 -6.9523 1.22409 -5.01187 -10.19703 -2.91536 2.52579 4.77987 -5.05308 5.4427 6.12853 9.54228
0.00054 0.57928 0.00053 178.66127 0 -3.42487 3.67589 3.53619 -0.73125 -23.65497 2.26459 1.87468 -13.87912 -70.41999 -90.01301 17.37448 44.80634 -28.08932 1.59554 21.19424 71.45738 68.10172 18.41533 -88.79073 -23.46316 4.72112 -4.85434 7.44315 -8.15138 -6.95534 1.22486 -5.01164 -10.20042 -2.90558 2.525 4.79587 -5.05677 5.44541 6.12308 9.52442
0.00061 0.57929 0.00059 178.65682 0 -3.42894 3.69876 3.51938 -0.69063 -24.13261 2.29192 1.84903 -14.03541 -70.51667 -90.01063 17.25774 44.42769 -28.1477 1.68989 21.28437 71.41912 68.52593 18.3976 -88.69336 -23.48747 4.73141 -4.84238 7.43979 -8.15938 -6.96402 1.22757 -5.01709 -10.19367 -2.89526 2.52383 4.81349 -5.06314 5.44729 6.11437 9.50943
0.00068 0.57929 0.00065 178.65422 0 -3.43335 3.71942 3.50351 -0.64928 -24.59324 2.32002 1.82253 -14.20163 -70.6095 -90.00083 17.14288 44.06247 -28.20659 1.76886 21.36515 71.37495 68.93704 18.38262 -88.60297 -23.50254 4.73905 -4.83136 7.43722 -8.163 -6.97052 1.22922 -5.0198 -10.19233 -2.88529 2.52279 4.82921 -5.06822 5.44917 6.10748 9.49414
0.00076 0.5793 0.00072 178.65187 0 -3.4378 3.73783 3.48796 -0.60433 -25.04393 2.35008 1.78989 -14.35938 -70.7151 -90.03146 17.00963 43.71109 -28.25736 1.85116 21.41957 71.33398 69.38031 18.35903 -88.4984 -23.51987 4.7507 -4.821 7.43441 -8.17062 -6.97549 1.23159 -5.02319 -10.1877 -2.87493 2.52193 4.84971 -5.07354 5.45249 6.09918 9.47464
0.00083 0.57931 0.00078 178.64799 0 -3.44197 3.76224 3.47125 -0.56789 -25.52475 2.37521 1.77124 -14.5271 -70.79442 -89.97856 16.91562 43.32481 -28.32481 1.93389 21.5359 71.28909 69.75947 18.35267 -88.42004 -23.53676 4.75502 -4.80875 7.43172 -8.17177 -6.98486 1.23295 -5.02649 -10.18738 -2.86521 2.5206 4.86082 -5.07907 5.45278 6.09304 9.46452
0.00089 0.57931 0.00083 178.64112 0 -3.44558 3.80306 3.4516 -0.55228 -26.08499 2.38923 1.7902 -14.75892 -70.80176 -89.67964 16.93217 42.82706 -28.44655 2.01225 21.8258 71.2298 69.95887 18.39708 -88.42967 -23.55055 4.73701 -4.79136 7.42983 -8.15235 -7.00614 1.23093 -5.02857 -10.20268 -2.85768 2.51805 4.84408 -5.08398 5.44347 6.09357 9.48019
0.00094 0.57931 0.00088 178.63284 0 -3.44892 3.84948 3.43092 -0.54545 -26.67283 2.39805 1.82303 -14.99465 -70.78233 -89.30025 16.98739 42.3007 -28.58314 2.08936 22.17495 71.16619 70.09332 18.45827 -88.46366 -23.56276 4.71173 -4.77224 7.42812 -8.12632 -7.03146 1.22786 -5.03032 -10.22244 -2.85074 2.51505 4.81811 -5.0891 5.43137 6.09641 9.50508
0.00099 0.57931 0.00092 178.62507 0 -3.45235 3.89247 3.41088 -0.53582 -27.24364 2.40799 1.84936 -15.20784 -70.7746 -88.96834 17.02253 41.80261 -28.70707 2.16573 22.48936 71.10525 70.25737 18.50994 -88.477 -23.57381 4.69056 -4.7543 7.42627 -8.10386 -7.05412 1.22537 -5.03195 -10.23932 -2.84335 2.51229 4.79738 -5.09446 5.42152 6.09826 9.52535
0.00104 0.57931 0.00097 178.61768 0 -3.45586 3.93941 3.39002 -0.52131 -27.83485 2.42301 1.87669 -15.51042 -70.76927 -88.58906 17.06829 41.23607 -28.85651 2.24935 22.83702 71.04226 70.42146 18.56979 -88.52916 -23.59327 4.66608 -4.7347 7.42459 -8.07922 -7.08033 1.22254 -5.03486 -10.25943 -2.83676 2.50937 4.77236 -5.0985 5.40763 6.09978 9.54751
0.0011 0.57931 0.00102 178.60923 0 -3.45918 3.97937 3.37069 -0.51897 -28.3896 2.42636 1.9052 -15.62509 -70.75212 -88.29079 17.10126 40.80914 -28.95575 2.31637 23.13022 70.98168 70.56992 18.6163 -88.50805 -23.59482 4.64678 -4.71806 7.42264 -8.0575 -7.1002 1.22012 -5.035 -10.27404 -2.82858 2.50669 4.75397 -5.10532 5.40135 6.10256 9.5679
0.00116 0.57931 0.00107 178.59804 0 -3.4618 3.99857 3.35558 -0.54824 -28.83626 2.39777 1.93299 -15.24339 -70.71199 -88.22359 17.08798 40.74764 -28.91703 2.3443 23.2481 70.93426 70.69076 18.62452 -88.2639 -23.54518 4.64296 -4.71119 7.41973 -8.04504 -7.10013 1.21917 -5.02705 -10.27221 -2.81633 2.50461 4.75712 -5.11963 5.41818 6.1085 9.58093
0.00122 0.57932 0.00112 178.58584 0 -3.46427 4.01051 3.34213 -0.58934 -29.24499 2.35779 1.96149 -14.66762 -70.65989 -88.24265 17.06103 40.83358 -28.82625 2.35419 23.31068 70.88802 70.79814 18.6183 -87.94792 -23.47795 4.64468 -4.70717 7.41657 -8.03573 -7.09378 1.21863 -5.01639 -10.26482 -2.80236 2.50282 4.76711 -5.13674 5.44254 6.11563 9.59188
0.00129 0.57933 0.00117 178.57424 0 -3.46696 4.02587 3.32806 -0.62495 -29.67153 2.3237 1.9901 -14.16608 -70.61177 -88.23081 17.04093 40.86909 -28.75673 2.36798 23.40552 70.838 70.91187 18.61689 -87.67455 -23.41993 4.64422 -4.70111 7.41364 -8.0253 -7.09124 1.2178 -5.00728 -10.26011 -2.78886 2.50102 4.77328 -5.1527 5.46251 6.12209 9.6039
0.00134 0.57933 0.00122 178.56214 0 -3.46901 4.04108 3.3133 -0.66156 -30.0974 2.28646 2.01767 -13.72582 -70.57059 -88.18265 17.01835 40.83073 -28.69872 2.39997 23.47326 70.80284 71.02232 18.62323 -87.36007 -23.35634 4.6421 -4.69817 7.41028 -8.01359 -7.08487 1.21737 -4.99679 -10.25478 -2.77668 2.49873 4.78201 -5.16824 5.48635 6.12911 9.61569
